<?xml version="1.0" standalone="no"?>
<!DOCTYPE svg PUBLIC "-//W3C//DTD SVG 20010904//EN"
 "http://www.w3.org/TR/2001/REC-SVG-20010904/DTD/svg10.dtd">
<svg version="1.0" xmlns="http://www.w3.org/2000/svg"
 width="260.000000pt" height="260.000000pt" viewBox="0 0 260.000000 260.000000"
 preserveAspectRatio="xMidYMid meet">
<metadata>
Created by potrace 1.11, written by Peter Selinger 2001-2013
</metadata>
<g transform="translate(0.000000,260.000000) scale(0.100000,-0.100000)"
fill="#000000" stroke="none">
<path d="M0 1300 l0 -1300 1300 0 1300 0 0 1300 0 1300 -1300 0 -1300 0 0
-1300z m1474 1181 c50 -11 213 -94 309 -156 29 -18 77 -59 108 -92 128 -133
189 -237 213 -367 14 -70 14 -83 -4 -164 -37 -167 -81 -269 -147 -338 -26 -28
-71 -79 -99 -115 -45 -57 -58 -67 -117 -87 -66 -23 -129 -73 -170 -135 -10
-15 -23 -27 -30 -27 -7 0 -34 34 -60 75 -74 113 -137 141 -256 113 -66 -16
-92 -46 -94 -110 l-2 -46 -25 20 -25 20 -20 -26 -21 -26 -21 22 c-20 19 -25
20 -47 8 -21 -11 -28 -11 -42 1 -14 12 -19 10 -34 -9 -16 -19 -19 -20 -31 -6
-8 10 -23 14 -43 11 -24 -3 -36 2 -54 20 -22 24 -24 24 -42 8 -18 -16 -19 -15
-36 17 -10 18 -17 47 -15 65 7 93 -84 96 -121 5 l-11 -27 -9 30 c-5 17 -16 95
-23 174 -14 140 -14 145 5 176 11 18 20 40 20 49 0 28 17 17 24 -15 3 -17 21
-46 40 -65 28 -28 42 -34 76 -34 37 0 41 -2 38 -22 -2 -17 -8 -22 -23 -19 -46
8 -118 5 -122 -5 -3 -8 13 -11 48 -11 42 1 55 -3 70 -22 11 -13 19 -29 19 -37
0 -7 9 -29 21 -48 21 -35 42 -46 54 -26 3 5 29 10 56 10 45 0 50 3 60 28 15
38 6 79 -36 173 -20 44 -35 89 -32 98 2 10 1 25 -4 32 -4 9 0 32 11 57 10 23
15 44 11 46 -4 3 -29 3 -55 1 -31 -3 -66 2 -107 16 -48 17 -66 19 -85 10 -13
-6 -24 -15 -24 -21 0 -5 -4 -10 -8 -10 -4 0 -14 26 -21 58 -12 56 -12 58 34
191 70 200 124 288 223 362 193 145 475 216 676 170z m466 -1234 c0 -39 -5
-58 -18 -70 -17 -16 -120 -42 -129 -33 -3 2 9 15 26 27 17 13 48 47 68 76 20
29 40 53 45 53 4 0 8 -24 8 -53z m-541 -125 l26 -17 -55 -3 c-40 -2 -61 -9
-78 -25 -20 -18 -26 -19 -43 -9 -16 10 -24 10 -34 2 -16 -13 -35 -5 -35 14 0
55 155 82 219 38z m361 6 c0 -7 -5 -67 -11 -133 -14 -143 -5 -211 42 -326 l32
-77 -61 -79 c-81 -106 -179 -175 -418 -292 -235 -116 -219 -110 -312 -112 -62
-2 -84 2 -112 19 -19 11 -54 25 -77 32 -50 13 -76 53 -86 133 -4 27 -19 82
-34 124 -22 64 -25 80 -15 106 6 18 14 61 18 97 5 57 2 77 -25 157 -17 50 -31
99 -31 107 0 29 21 27 33 -3 6 -17 18 -33 25 -36 22 -8 44 16 39 41 -2 13 0
29 5 36 13 20 23 -2 43 -97 l17 -83 -27 -46 c-25 -42 -27 -53 -23 -134 4 -96
27 -159 64 -177 12 -6 30 -17 39 -25 15 -12 19 -11 34 9 l17 23 17 -26 c22
-33 45 -33 57 -1 10 27 20 31 37 14 16 -16 48 -2 62 27 11 25 13 25 30 10 26
-24 39 -20 62 19 17 29 25 34 45 29 27 -7 64 18 64 43 0 11 8 13 29 8 25 -5
30 -3 38 22 7 20 16 27 34 28 34 0 115 91 130 147 7 27 9 84 6 151 -4 96 -3
109 13 117 16 8 19 3 25 -38 13 -88 54 -117 94 -67 21 28 51 143 51 199 0 19
3 41 6 50 7 19 24 21 24 4z m-110 -57 c0 -12 -20 -25 -27 -18 -7 7 6 27 18 27
5 0 9 -4 9 -9z m-969 -23 c2 -23 -3 -73 -7 -78 -3 -2 -9 2 -14 10 -11 17 -13
64 -3 73 10 11 23 8 24 -5z m79 -54 c0 -46 -9 -58 -34 -48 -18 7 -21 49 -6 89
15 40 40 15 40 -41z m706 52 c28 -21 7 -37 -39 -29 -43 7 -46 14 -14 29 31 16
31 16 53 0z m-266 -57 c0 -14 -7 -33 -16 -40 -36 -29 -53 48 -21 89 15 19 37
-11 37 -49z m50 47 c16 -20 9 -60 -12 -64 -15 -3 -18 4 -18 37 0 43 9 51 30
27z m-139 -46 c15 -48 6 -72 -23 -68 -20 3 -23 10 -26 52 -2 32 1 52 9 57 19
11 27 3 40 -41z m-171 -37 c0 -53 -12 -93 -29 -93 -14 0 -23 141 -10 156 21
26 39 -3 39 -63z m67 65 c6 -7 13 -30 16 -50 4 -29 2 -40 -11 -47 -32 -18 -50
4 -47 56 2 26 4 49 4 51 3 7 30 0 38 -10z m-159 -10 c18 -18 15 -67 -4 -75
-25 -9 -58 30 -50 61 7 28 33 35 54 14z m792 -7 c0 -11 5 -23 10 -26 8 -5 7
-11 -1 -21 -16 -20 -39 -18 -39 4 0 9 -3 27 -6 40 -5 18 -2 22 15 22 14 0 21
-6 21 -19z m-132 -23 c7 -7 12 -25 12 -41 l0 -30 -51 6 c-29 4 -53 8 -55 10
-2 2 3 18 12 35 12 24 22 32 43 32 15 0 32 -5 39 -12z m152 -79 c0 -14 -5 -19
-17 -17 -26 5 -29 38 -4 38 15 0 21 -6 21 -21z m-137 -51 c5 -39 -7 -50 -40
-37 -14 5 -35 9 -49 9 l-25 0 21 22 c11 12 20 25 20 30 0 4 15 8 34 8 30 0 34
-3 39 -32z m-5 -81 c17 -20 1 -33 -45 -41 -49 -7 -56 5 -20 35 26 22 50 24 65
6z m-632 -45 c16 -10 34 -47 34 -69 0 -14 -9 -9 -35 20 -19 21 -35 42 -35 48
0 11 20 12 36 1z m535 -33 c24 -24 24 -92 -2 -97 -17 -3 -65 91 -54 108 10 16
33 12 56 -11z m79 -19 c-13 -25 -27 -33 -35 -20 -8 13 24 52 36 44 5 -3 5 -14
-1 -24z m-625 -21 c31 -37 25 -52 -8 -21 -13 12 -31 22 -40 22 -17 0 -22 11
-10 23 13 14 32 6 58 -24z m483 -12 c14 -29 9 -97 -7 -97 -11 0 -61 76 -61 93
0 19 22 38 40 35 8 -2 21 -16 28 -31z m-493 -39 c8 -13 11 -24 6 -26 -12 -4
-61 27 -61 39 0 18 39 8 55 -13z m427 -23 c9 -21 8 -32 -5 -61 -19 -40 -32
-40 -60 -2 -14 19 -17 34 -12 57 6 26 11 31 36 31 22 0 32 -7 41 -25z m-452
-15 c0 -12 -28 -25 -36 -17 -9 9 6 27 22 27 8 0 14 -5 14 -10z m95 -30 c9 -15
-6 -60 -20 -60 -20 0 -28 18 -21 46 6 24 30 33 41 14z m251 -25 c15 -23 15
-27 0 -50 -20 -31 -30 -31 -50 -3 -16 23 -21 60 -9 71 14 15 43 6 59 -18z
m-341 -38 c1 -26 -2 -47 -7 -47 -20 0 -38 77 -21 94 16 16 28 -4 28 -47z m235
13 c17 -33 9 -75 -15 -75 -17 0 -20 8 -23 48 -2 37 0 47 12 47 8 0 20 -9 26
-20z m-170 -67 c0 -13 -6 -23 -14 -23 -17 0 -41 54 -31 70 11 17 45 -18 45
-47z m82 -3 c-1 -39 -7 -46 -26 -31 -22 18 -31 72 -15 82 21 12 42 -15 41 -51z"/>
<path d="M1636 1829 c-3 -13 -17 -95 -31 -189 -3 -19 -10 -66 -16 -104 -14
-90 -8 -111 41 -136 50 -25 101 -25 148 0 20 11 65 32 100 46 63 27 112 71
112 102 0 11 -10 5 -32 -19 -18 -19 -53 -43 -78 -53 -25 -9 -62 -26 -82 -37
-59 -30 -117 -34 -155 -10 -37 23 -40 40 -24 132 42 238 44 260 33 271 -8 8
-12 8 -16 -3z"/>
<path d="M1260 1784 c-30 -6 -157 -58 -223 -91 -41 -20 -53 -22 -84 -14 -45
13 -50 9 -31 -21 8 -13 25 -53 37 -90 48 -145 79 -162 271 -155 177 6 223 28
266 125 45 99 25 189 -48 222 -44 19 -144 32 -188 24z"/>
<path d="M1025 1345 c-26 -25 -32 -49 -16 -59 5 -3 12 5 15 19 4 16 16 27 32
31 37 9 206 -4 279 -21 67 -16 91 -38 101 -91 3 -19 12 -34 20 -34 17 0 17 -4
0 44 -19 54 -62 106 -89 106 -12 0 -54 7 -92 15 -39 8 -105 15 -148 15 -70 0
-81 -3 -102 -25z"/>
<path d="M1712 740 c3 -19 13 -65 23 -102 l19 -67 -42 -50 c-23 -27 -38 -52
-33 -55 5 -4 28 15 51 41 46 54 48 75 13 190 -21 71 -37 94 -31 43z"/>
</g>
</svg>
